<?xml version="1.0" encoding="utf-8"?>
<!-- Generator: Adobe Illustrator 25.4.1, SVG Export Plug-In . SVG Version: 6.00 Build 0)  -->
<svg version="1.1" xmlns="http://www.w3.org/2000/svg" xmlns:xlink="http://www.w3.org/1999/xlink" x="0px" y="0px"
	 viewBox="0 0 20 20" enable-background="new 0 0 20 20" xml:space="preserve">
<g id="Layer_2" display="none">
	<rect x="-114.02" y="-2.17" display="inline" fill="#BCBEC0" width="115.15" height="28.52"/>
</g>
<g id="Layer_1">
	<path fill="#B2D459" d="M3.24,16.99c-0.33,0-0.6-0.25-0.63-0.58c-0.03-0.35,0.23-0.65,0.58-0.68c1.05-0.08,1.13-0.45,1.26-1.7
		c0.08-0.74,0.17-1.66,0.69-2.52c0.38-0.64,0.94-1.16,1.69-1.58c-1.02-0.5-1.82-1.06-2.38-1.69c-0.94-1.05-1-2.02-0.89-2.65
		c0.25-1.38,1.59-2.41,3.13-2.4c0.92,0.01,1.8,0.4,2.48,1.11c0.45,0.47,0.81,1.06,1.08,1.77c0.4-0.63,0.85-1.13,1.34-1.49
		c0.77-0.57,1.65-0.79,2.47-0.63c0.63,0.12,1.2,0.47,1.61,0.96c0.41,0.5,0.64,1.13,0.64,1.77c0,0.84-0.4,1.66-1.13,2.3
		c-0.48,0.43-1.1,0.78-1.85,1.06c0.64,0.42,1.15,0.89,1.5,1.42c0.53,0.79,0.71,1.69,0.49,2.54c-0.18,0.7-0.6,1.32-1.19,1.76
		c-0.6,0.45-1.31,0.66-2,0.58c-0.57-0.06-1.39-0.34-2.03-1.33c-0.54-0.83-0.84-2-0.9-3.47c-0.01-0.35,0.26-0.64,0.6-0.65
		c0.35-0.01,0.64,0.26,0.65,0.6c0.08,2.14,0.76,3.49,1.8,3.6c0.78,0.08,1.62-0.56,1.84-1.4c0.13-0.51,0.02-1.04-0.31-1.53
		c-0.44-0.66-1.28-1.25-2.42-1.72c-0.26-0.11-0.41-0.37-0.39-0.65c0.03-0.28,0.24-0.5,0.51-0.55c1.26-0.24,2.25-0.65,2.86-1.2
		c0.46-0.41,0.7-0.88,0.71-1.36c0-0.71-0.53-1.35-1.24-1.49c-0.48-0.09-0.99,0.04-1.48,0.4c-0.65,0.48-1.23,1.33-1.7,2.48
		c-0.11,0.26-0.37,0.42-0.65,0.39C9.71,8.44,9.49,8.22,9.44,7.94c-0.19-1.21-0.6-2.16-1.18-2.76C7.69,4.59,7.09,4.46,6.68,4.46
		c-0.01,0-0.01,0-0.02,0c-0.91,0-1.72,0.6-1.86,1.36C4.71,6.32,4.91,6.87,5.39,7.4c0.65,0.72,1.78,1.39,3.28,1.93
		c0.25,0.09,0.42,0.33,0.42,0.6c-0.01,0.27-0.18,0.51-0.44,0.59c-1.2,0.38-1.99,0.91-2.42,1.63c-0.37,0.62-0.44,1.32-0.51,2
		c-0.07,0.65-0.13,1.26-0.44,1.79c-0.38,0.63-1.02,0.97-1.97,1.04C3.28,16.98,3.26,16.99,3.24,16.99z"/>
</g>
</svg>
